<svg width="128" height="128" viewBox="0 0 128 128" fill="none" xmlns="http://www.w3.org/2000/svg">
  <rect x="14" y="14" width="100" height="100" rx="24" fill="url(#bg)"/>
  <path d="M44 35C39.0294 35 35 39.0294 35 44V84C35 88.9706 39.0294 93 44 93H61C63.2091 93 65 91.2091 65 89C65 86.7909 63.2091 85 61 85H47C44.7909 85 43 83.2091 43 81V47C43 44.7909 44.7909 43 47 43H81C83.2091 43 85 44.7909 85 47V61C85 63.2091 86.7909 65 89 65C91.2091 65 93 63.2091 93 61V44C93 39.0294 88.9706 35 84 35H44Z" fill="white"/>
  <path d="M60 73C58.3431 73 57 74.3431 57 76C57 77.6569 58.3431 79 60 79H76.7574L53.8787 101.879C52.7071 103.05 52.7071 104.95 53.8787 106.121C55.0503 107.293 56.9497 107.293 58.1213 106.121L81 83.2426V100C81 101.657 82.3431 103 84 103C85.6569 103 87 101.657 87 100V76C87 74.3431 85.6569 73 84 73H60Z" fill="#D7F24A"/>
  <path d="M79.0711 38.9289C80.6332 37.3668 83.1658 37.3668 84.7279 38.9289L91.0711 45.2721C92.6332 46.8342 92.6332 49.3668 91.0711 50.9289L70.8284 71.1716C70.0783 71.9217 69.0611 72.3431 68 72.3431C66.9389 72.3431 65.9217 71.9217 65.1716 71.1716L58.8284 64.8284C57.2663 63.2663 57.2663 60.7337 58.8284 59.1716L79.0711 38.9289Z" fill="white"/>
  <defs>
    <linearGradient id="bg" x1="24" y1="20" x2="106" y2="110" gradientUnits="userSpaceOnUse">
      <stop stop-color="#1475FF"/>
      <stop offset="1" stop-color="#0C46A0"/>
    </linearGradient>
  </defs>
</svg>
